<svg width="387" height="632" viewBox="0 0 387 632" fill="none" xmlns="http://www.w3.org/2000/svg">
<mask id="mask0_543_477" style="mask-type:alpha" maskUnits="userSpaceOnUse" x="0" y="0" width="387" height="632">
<rect width="387" height="632" rx="12" fill="#663259"/>
</mask>
<g mask="url(#mask0_543_477)">
<mask id="mask1_543_477" style="mask-type:alpha" maskUnits="userSpaceOnUse" x="-66" y="308" width="463" height="348">
<rect x="-66" y="308" width="463" height="348" fill="white"/>
</mask>
<g mask="url(#mask1_543_477)">
<path d="M223.375 598.2C223.375 630.232 197.463 656.2 165.5 656.2L165.5 598.2H223.375Z" fill="#3699FF"/>
<path d="M339.125 540.2C307.162 540.2 281.25 514.232 281.25 482.2H339.125V540.2Z" fill="#D6DA34"/>
<path d="M165.919 668.578C127.077 668.578 95.5896 637.041 95.5896 598.14H165.919V668.578Z" fill="#6ED47C"/>
<path d="M165.5 627.8C149.187 627.8 135.964 614.548 135.964 598.2H165.5V627.8Z" fill="#D5E155"/>
<path d="M396.132 337.29H367.194C351.213 337.29 338.257 350.274 338.257 366.29H367.194C383.176 366.29 396.132 353.306 396.132 337.29Z" fill="#6ED47C"/>
<path d="M223.375 569.2H252.166C268.229 569.2 281.25 582.184 281.25 598.2H252.459C236.396 598.2 223.375 585.216 223.375 569.2Z" fill="#6ED47C"/>
<path d="M281.25 656.2V598.2C281.25 566.168 307.162 540.2 339.125 540.2V598.2C339.125 630.232 313.213 656.2 281.25 656.2Z" fill="#6ED47C"/>
<path d="M310.188 598V569.246C310.188 553.205 323.143 540.2 339.125 540.2V568.954C339.125 584.996 326.169 598 310.188 598Z" fill="#2D3652"/>
<path d="M264.087 540C264.087 530.39 271.86 522.6 281.449 522.6C291.039 522.6 298.812 530.39 298.812 540C298.812 549.61 291.039 557.4 281.449 557.4C271.86 557.4 264.087 549.61 264.087 540Z" fill="#FF743C"/>
<path d="M272.868 540.1C272.868 535.295 276.755 531.4 281.549 531.4C286.344 531.4 290.231 535.295 290.231 540.1C290.231 544.905 286.344 548.8 281.549 548.8C276.755 548.8 272.868 544.905 272.868 540.1Z" fill="#FFC700"/>
<path d="M339.125 453C339.125 436.984 326.169 424 310.188 424C294.206 424 281.25 436.984 281.25 453C281.25 469.016 294.206 482 310.188 482H339.125V453Z" fill="#FF743C"/>
<path d="M338.392 365.86V386.824C338.392 398.402 329.021 407.788 317.461 407.788V386.824C317.461 375.246 326.832 365.86 338.392 365.86Z" fill="#A04AE3"/>
<path d="M339.125 467C339.125 458.716 332.424 452 324.157 452C315.891 452 309.189 458.716 309.189 467C309.189 475.284 315.891 482 324.157 482H339.125V467Z" fill="#FFC700"/>
<path d="M223.375 627.2C223.375 611.184 236.331 598.2 252.312 598.2C268.294 598.2 281.25 611.184 281.25 627.2C281.25 643.216 268.294 656.2 252.312 656.2C236.331 656.2 223.375 643.216 223.375 627.2Z" fill="#FF743C"/>
<path d="M236.347 626.9C236.347 618.009 243.54 610.8 252.412 610.8C261.285 610.8 268.478 618.009 268.478 626.9C268.478 635.792 261.285 643 252.412 643C243.54 643 236.347 635.792 236.347 626.9Z" fill="#2D3652"/>
<path d="M338.925 424C338.925 391.968 364.837 366 396.8 366V424H338.925Z" fill="#FF743C"/>
<path d="M396.8 540C364.837 540 338.925 514.032 338.925 482H396.8V540Z" fill="#3699FF"/>
<path d="M338.925 482C338.925 449.967 364.837 424 396.8 424V482H338.925Z" fill="#6ED47C"/>
<path d="M367.264 482C367.264 465.652 380.488 452.4 396.8 452.4V482H367.264Z" fill="#D5E155"/>
<path d="M339.125 627.29C339.125 643.306 352.081 656.29 368.062 656.29C384.044 656.29 397 643.306 397 627.29C397 611.274 384.044 598.29 368.062 598.29H339.125V627.29Z" fill="#FFC700"/>
<path d="M339.125 613.29C339.125 621.574 345.826 628.29 354.093 628.29C362.359 628.29 369.06 621.574 369.06 613.29C369.06 605.006 362.359 598.29 354.093 598.29H339.125V613.29Z" fill="#FF743C"/>
<path d="M367.863 540C383.844 540 396.8 552.984 396.8 569C396.8 585.016 383.844 598 367.863 598C351.881 598 338.925 585.016 338.925 569C338.925 552.984 351.881 540 367.863 540Z" fill="#FF743C"/>
<path d="M368.162 553C377.035 553 384.228 560.208 384.228 569.1C384.228 577.992 377.035 585.2 368.162 585.2C359.29 585.2 352.097 577.992 352.097 569.1C352.097 560.208 359.29 553 368.162 553Z" fill="#2D3652"/>
<path d="M139.964 556.212H181.826C204.946 556.212 223.689 574.984 223.689 598.14H181.826C158.707 598.14 139.964 579.368 139.964 556.212Z" fill="#A04AE3"/>
<path d="M181.826 577.176H202.652C214.27 577.176 223.689 586.562 223.689 598.14H202.863C191.244 598.14 181.826 588.754 181.826 577.176Z" fill="#6ED47C"/>
</g>
</g>
</svg>
